<?xml version="1.0" encoding="utf-8"?>
<!-- Generator: Adobe Illustrator 19.0.0, SVG Export Plug-In . SVG Version: 6.00 Build 0)  -->
<svg version="1.1" id="Layer_1" xmlns="http://www.w3.org/2000/svg" xmlns:xlink="http://www.w3.org/1999/xlink" x="0px" y="0px"
	 viewBox="0 0 1732.4 443.3" style="enable-background:new 0 0 1732.4 443.3;" xml:space="preserve">
<style type="text/css">
	.st0{fill:#FFFFFF;}
	.st1{fill:none;}
	.st2{fill:#5EBD74;}
	.st3{fill:#5FBE75;}
</style>
<g id="XMLID_97_">
	<g id="XMLID_98_">
		<path id="XMLID_104_" class="st0" d="M378.2,222.1c0-54.5-17.2-106.5-48.3-146.5C299,35.9,257,11.5,211.7,7l-1-0.1v0v68.4h-2.1
			v69.2h2.1v67.1h-0.9h-1.2H76.2v155.8H5.3v70h70.8h2.1h127.8h0.2c0.5,0,1.8,0,2.9,0c0.2,0,0.3,0,0.5,0l0,0c0,0,2.2-0.1,3.1-0.2l0,0
			C305.4,427.2,378.2,334.5,378.2,222.1z"/>
		<line id="XMLID_103_" class="st1" x1="76.2" y1="144.5" x2="76.2" y2="2"/>
		<rect id="XMLID_100_" x="5.3" y="7.2" class="st2" width="70.8" height="68.1"/>
		<polygon id="XMLID_99_" class="st0" points="177.8,75.4 78.3,75.4 76.2,75.4 76.2,77.5 76.2,144.5 209.9,144.5 209.9,75.4 		"/>
	</g>
	<g id="XMLID_319_">
		<path id="XMLID_320_" class="st0" d="M481.9,187.6c-1.6,0-2.9-0.5-3.8-1.4c-0.9-1-1.3-2.2-1.3-3.6V38.2c0-1.6,0.4-2.9,1.3-3.9
			c0.9-1,2.1-1.4,3.8-1.4h90.2c1.6,0,2.9,0.5,3.9,1.4c1,1,1.4,2.2,1.4,3.9V47c0,1.6-0.5,2.9-1.4,3.8c-1,0.9-2.2,1.3-3.9,1.3h-73.8
			v51.5h69.4c1.6,0,2.9,0.5,3.9,1.4c1,1,1.4,2.2,1.4,3.9v8.8c0,1.5-0.5,2.7-1.4,3.6c-1,1-2.2,1.4-3.9,1.4h-69.4v59.7
			c0,1.5-0.5,2.7-1.4,3.6c-1,1-2.2,1.4-3.9,1.4H481.9z"/>
		<path id="XMLID_322_" class="st0" d="M615.4,187.6c-1.6,0-2.9-0.5-3.8-1.4c-0.9-1-1.3-2.2-1.3-3.6V38.2c0-1.6,0.4-2.9,1.3-3.9
			c0.9-1,2.1-1.4,3.8-1.4h53.9c16.7,0,29.8,3.9,39.6,11.7c9.7,7.8,14.6,19.4,14.6,34.7c0,11.4-2.8,20.6-8.5,27.7
			c-5.7,7.2-13.4,12.1-23.1,14.9l34,58.8c0.4,0.9,0.7,1.7,0.7,2.4c0,1.2-0.5,2.2-1.4,3.1c-1,0.9-2,1.3-3.2,1.3h-10.6
			c-2.5,0-4.3-0.7-5.5-2c-1.2-1.3-2.2-2.7-3.1-4l-32.1-56.2H632v57c0,1.5-0.5,2.7-1.4,3.6c-1,1-2.2,1.4-3.9,1.4H615.4z M632,106.7
			h36.5c11.1,0,19.3-2.3,24.8-7c5.5-4.6,8.2-11.5,8.2-20.7c0-9-2.7-15.8-8.1-20.6c-5.4-4.7-13.7-7.1-24.9-7.1H632V106.7z"/>
		<path id="XMLID_325_" class="st0" d="M764.7,187.6c-1.6,0-2.9-0.5-3.8-1.4c-0.9-1-1.3-2.2-1.3-3.6V38.2c0-1.6,0.4-2.9,1.3-3.9
			c0.9-1,2.1-1.4,3.8-1.4H856c1.6,0,2.9,0.5,3.8,1.4c0.9,1,1.3,2.2,1.3,3.9v8.4c0,1.6-0.4,2.9-1.3,3.8c-0.9,0.9-2.1,1.3-3.8,1.3
			h-75.2v48.4h70.3c1.6,0,2.9,0.5,3.8,1.4c0.9,1,1.3,2.2,1.3,3.9v8.2c0,1.5-0.4,2.7-1.3,3.6c-0.9,1-2.1,1.4-3.8,1.4h-70.3v50.2h76.9
			c1.6,0,2.9,0.4,3.8,1.3c0.9,0.9,1.3,2.1,1.3,3.8v8.6c0,1.5-0.4,2.7-1.3,3.6c-0.9,1-2.1,1.4-3.8,1.4H764.7z"/>
		<path id="XMLID_327_" class="st0" d="M903.1,187.6c-1.6,0-2.9-0.5-3.8-1.4c-0.9-1-1.3-2.2-1.3-3.6V38.2c0-1.6,0.4-2.9,1.3-3.9
			c0.9-1,2.1-1.4,3.8-1.4h91.3c1.6,0,2.9,0.5,3.8,1.4c0.9,1,1.3,2.2,1.3,3.9v8.4c0,1.6-0.4,2.9-1.3,3.8c-0.9,0.9-2.1,1.3-3.8,1.3
			h-75.2v48.4h70.3c1.6,0,2.9,0.5,3.8,1.4c0.9,1,1.3,2.2,1.3,3.9v8.2c0,1.5-0.4,2.7-1.3,3.6c-0.9,1-2.1,1.4-3.8,1.4h-70.3v50.2h76.9
			c1.6,0,2.9,0.4,3.8,1.3c0.9,0.9,1.3,2.1,1.3,3.8v8.6c0,1.5-0.4,2.7-1.3,3.6c-0.9,1-2.1,1.4-3.8,1.4H903.1z"/>
		<path id="XMLID_329_" class="st3" d="M1041.5,187.6c-1.6,0-2.9-0.5-3.8-1.4c-0.9-1-1.3-2.2-1.3-3.6V38.2c0-1.6,0.4-2.9,1.3-3.9
			c0.9-1,2.1-1.4,3.8-1.4h90.2c1.6,0,2.9,0.5,3.9,1.4c1,1,1.4,2.2,1.4,3.9V47c0,1.6-0.5,2.9-1.4,3.8c-1,0.9-2.2,1.3-3.9,1.3h-73.8
			v51.5h69.4c1.6,0,2.9,0.5,3.9,1.4c1,1,1.4,2.2,1.4,3.9v8.8c0,1.5-0.5,2.7-1.4,3.6c-1,1-2.2,1.4-3.9,1.4h-69.4v59.7
			c0,1.5-0.5,2.7-1.4,3.6c-1,1-2.2,1.4-3.9,1.4H1041.5z"/>
		<path id="XMLID_352_" class="st3" d="M1224.5,189.8c-12.7,0-23.5-2.2-32.5-6.5c-9-4.3-15.9-11.1-20.8-20.1
			c-4.9-9.1-7.6-20.5-8.2-34.2c-0.1-6.5-0.2-12.7-0.2-18.7c0-6,0.1-12.2,0.2-18.7c0.6-13.6,3.4-24.9,8.5-33.9
			c5.1-9.1,12.2-15.8,21.2-20.3c9.1-4.5,19.6-6.7,31.7-6.7c11.9,0,22.4,2.2,31.5,6.7c9.1,4.5,16.2,11.3,21.3,20.3
			c5.2,9.1,8,20.4,8.4,33.9c0.3,6.5,0.4,12.7,0.4,18.7c0,6-0.1,12.2-0.4,18.7c-0.4,13.7-3.1,25.1-8.1,34.2
			c-4.9,9.1-11.9,15.8-20.9,20.1C1247.8,187.7,1237,189.8,1224.5,189.8z M1224.5,171.1c11.2,0,20.4-3.4,27.5-10.2
			c7.1-6.8,11-17.8,11.6-32.9c0.3-6.6,0.4-12.6,0.4-17.8c0-5.2-0.1-11.1-0.4-17.6c-0.3-10.2-2.2-18.4-5.6-24.8
			c-3.5-6.3-8.1-11-13.8-13.9c-5.7-2.9-12.3-4.4-19.7-4.4c-7.4,0-13.9,1.5-19.7,4.4c-5.7,3-10.4,7.6-13.8,13.9
			c-3.5,6.3-5.4,14.6-5.9,24.8c-0.1,6.5-0.2,12.3-0.2,17.6c0,5.2,0.1,11.2,0.2,17.8c0.6,15.2,4.5,26.2,11.7,32.9
			C1204.1,167.7,1213.3,171.1,1224.5,171.1z"/>
		<path id="XMLID_355_" class="st3" d="M1328,187.6c-1.6,0-2.9-0.5-3.8-1.4c-0.9-1-1.3-2.2-1.3-3.6V38.2c0-1.6,0.4-2.9,1.3-3.9
			c0.9-1,2.1-1.4,3.8-1.4h53.9c16.7,0,29.8,3.9,39.6,11.7c9.7,7.8,14.6,19.4,14.6,34.7c0,11.4-2.8,20.6-8.5,27.7
			c-5.7,7.2-13.4,12.1-23.1,14.9l34,58.8c0.4,0.9,0.7,1.7,0.7,2.4c0,1.2-0.5,2.2-1.4,3.1c-1,0.9-2,1.3-3.2,1.3h-10.6
			c-2.5,0-4.3-0.7-5.5-2c-1.2-1.3-2.2-2.7-3.1-4l-32.1-56.2h-38.7v57c0,1.5-0.5,2.7-1.4,3.6c-1,1-2.2,1.4-3.9,1.4H1328z
			 M1344.6,106.7h36.5c11.1,0,19.3-2.3,24.8-7c5.5-4.6,8.2-11.5,8.2-20.7c0-9-2.7-15.8-8.1-20.6c-5.4-4.7-13.7-7.1-24.9-7.1h-36.5
			V106.7z"/>
		<path id="XMLID_358_" class="st0" d="M480.1,406.5c-1.5,0-2.7-0.5-3.8-1.5c-1-1-1.5-2.3-1.5-3.8V257.3c0-1.6,0.5-2.9,1.5-4
			c1-1,2.3-1.5,3.8-1.5h53.9c14.9,0,27.2,2.3,36.8,6.9c9.7,4.6,16.9,11.4,21.9,20.3c4.9,9,7.5,20,7.6,32.9
			c0.3,6.5,0.4,12.2,0.4,17.2c0,5-0.1,10.7-0.4,17c-0.3,13.7-2.8,25-7.5,33.9c-4.7,8.9-11.8,15.6-21.3,19.9
			c-9.5,4.3-21.6,6.5-36.4,6.5H480.1z M505.5,381.1h28.5c8.3,0,15-1.2,20.1-3.5c5.2-2.4,9-6.2,11.4-11.4c2.4-5.2,3.7-12.1,3.9-20.7
			c0.1-4.4,0.3-8.3,0.3-11.6c0.1-3.3,0.1-6.6,0-9.9c-0.1-3.3-0.2-7.1-0.3-11.4c-0.3-12.1-3.3-21-9.1-26.8
			c-5.7-5.7-14.9-8.6-27.4-8.6h-27.4V381.1z"/>
		<path id="XMLID_361_" class="st0" d="M640,406.5c-1.5,0-2.7-0.5-3.8-1.5c-1-1-1.5-2.3-1.5-3.8V257.3c0-1.6,0.5-2.9,1.5-4
			c1-1,2.3-1.5,3.8-1.5h97.3c1.6,0,2.9,0.5,4,1.5c1,1,1.5,2.4,1.5,4v14.6c0,1.5-0.5,2.7-1.5,3.8c-1,1-2.4,1.5-4,1.5h-72.7v39.1h67.9
			c1.6,0,2.9,0.5,4,1.4c1,1,1.5,2.2,1.5,3.9v13.7c0,1.6-0.5,2.9-1.5,3.9c-1,1-2.4,1.4-4,1.4h-67.9v40.5H739c1.6,0,2.9,0.5,4,1.5
			c1,1,1.5,2.4,1.5,4v14.6c0,1.5-0.5,2.7-1.5,3.8c-1,1-2.4,1.5-4,1.5H640z"/>
		<path id="XMLID_363_" class="st0" d="M830.3,408.7c-13.7,0-25.2-2-34.4-6.1c-9.2-4.1-16.2-9.4-21-15.9c-4.8-6.6-7.3-13.4-7.6-20.7
			c0-1.3,0.4-2.4,1.3-3.3c0.9-0.9,2-1.3,3.3-1.3h19.7c1.9,0,3.4,0.4,4.3,1.2c1,0.8,1.8,1.8,2.5,3c0.9,2.8,2.6,5.6,5.1,8.3
			c2.5,2.7,5.9,5,10.3,6.7c4.3,1.8,9.8,2.7,16.5,2.7c10.6,0,18.5-1.8,23.8-5.3c5.2-3.5,7.8-8.3,7.8-14.4c0-4.3-1.4-7.7-4.2-10.3
			c-2.8-2.6-7.1-4.9-12.9-7.1c-5.8-2.1-13.5-4.4-23.1-6.7c-11.1-2.7-20.3-5.9-27.7-9.6c-7.4-3.8-13-8.5-16.8-14.3
			c-3.8-5.7-5.6-13-5.6-21.9c0-8.5,2.3-16.1,7-22.8c4.6-6.6,11.3-11.9,19.9-15.7c8.6-3.8,18.9-5.7,30.8-5.7c9.6,0,18.1,1.3,25.4,3.9
			c7.4,2.6,13.5,6,18.3,10.2c4.9,4.2,8.6,8.7,11.2,13.5c2.6,4.8,3.9,9.5,4.1,14c0,1.2-0.4,2.2-1.2,3.2c-0.8,1-2,1.4-3.4,1.4H863
			c-1.2,0-2.4-0.3-3.5-0.9c-1.2-0.6-2.1-1.7-2.9-3.3c-0.9-4.6-3.8-8.5-8.6-11.7c-4.9-3.2-11.1-4.9-18.8-4.9c-8,0-14.4,1.5-19.2,4.4
			c-4.9,3-7.3,7.5-7.3,13.7c0,4.1,1.2,7.6,3.6,10.3c2.4,2.7,6.3,5.1,11.7,7.2c5.4,2.1,12.5,4.3,21.3,6.6c12.5,2.8,22.8,6,30.7,9.7
			c8,3.7,13.8,8.4,17.5,14c3.7,5.7,5.5,12.9,5.5,21.6c0,9.7-2.6,18-7.8,24.9c-5.2,6.9-12.6,12.1-22,15.8
			C853.8,406.9,842.8,408.7,830.3,408.7z"/>
		<path id="XMLID_365_" class="st0" d="M928.3,406.5c-1.5,0-2.7-0.5-3.8-1.5c-1-1-1.5-2.3-1.5-3.8V257.1c0-1.5,0.5-2.7,1.5-3.8
			c1-1,2.3-1.5,3.8-1.5H949c1.6,0,2.9,0.5,3.9,1.5c1,1,1.4,2.3,1.4,3.8v144.1c0,1.5-0.5,2.7-1.4,3.8c-1,1-2.2,1.5-3.9,1.5H928.3z"/>
		<path id="XMLID_367_" class="st0" d="M1053.6,408.7c-13.6,0-25.1-2.4-34.6-7.1c-9.5-4.7-16.9-11.5-22.1-20.5
			c-5.2-8.9-8.1-19.6-8.5-31.9c-0.1-6.3-0.2-13.2-0.2-20.5s0.1-14.2,0.2-20.7c0.4-12.2,3.3-22.7,8.5-31.4
			c5.2-8.7,12.7-15.4,22.3-20.1c9.7-4.7,21.1-7.1,34.4-7.1c10.8,0,20.2,1.4,28.3,4.3c8.1,2.9,14.8,6.6,20.2,11.1
			c5.4,4.5,9.4,9.3,12.2,14.5c2.7,5.2,4.2,9.9,4.3,14.4c0.1,1.3-0.2,2.4-1.1,3.3c-0.9,0.9-2.1,1.3-3.5,1.3h-22.8
			c-1.5,0-2.6-0.3-3.3-0.9c-0.7-0.6-1.4-1.5-2-2.7c-1.2-3.1-3-6.2-5.5-9.2c-2.5-3-5.9-5.6-10.2-7.6c-4.3-2.1-9.8-3.1-16.6-3.1
			c-10,0-18,2.7-24,8c-6,5.3-9.2,14.1-9.6,26.3c-0.4,12.8-0.4,25.8,0,38.9c0.4,12.5,3.7,21.5,9.8,27c6.1,5.5,14.2,8.2,24.2,8.2
			c6.6,0,12.6-1.2,17.8-3.5c5.2-2.4,9.4-6,12.4-11.1c3-5,4.5-11.4,4.5-19.2v-6.9h-27c-1.5,0-2.7-0.5-3.8-1.5c-1-1-1.5-2.4-1.5-4
			v-11.7c0-1.6,0.5-2.9,1.5-4c1-1,2.3-1.5,3.8-1.5h52.8c1.6,0,2.9,0.5,3.9,1.5c1,1,1.4,2.4,1.4,4v23.2c0,12.4-2.7,23.1-8.1,32.1
			c-5.4,9-13,15.9-23,20.8C1078.9,406.3,1067.2,408.7,1053.6,408.7z"/>
		<path id="XMLID_369_" class="st0" d="M1158,406.5c-1.5,0-2.7-0.5-3.8-1.5c-1-1-1.5-2.3-1.5-3.8V257.3c0-1.6,0.5-2.9,1.5-4
			c1-1,2.3-1.5,3.8-1.5h17c2.1,0,3.6,0.5,4.5,1.4c1,1,1.6,1.7,1.9,2.1l63.7,99v-97.1c0-1.6,0.5-2.9,1.4-4c1-1,2.2-1.5,3.9-1.5h18.6
			c1.6,0,2.9,0.5,4,1.5c1,1,1.5,2.4,1.5,4V401c0,1.6-0.5,3-1.5,4c-1,1-2.3,1.5-3.8,1.5h-17.2c-2.1,0-3.5-0.5-4.4-1.5
			c-0.9-1-1.5-1.7-2-2l-63.5-96.8v95.1c0,1.5-0.5,2.7-1.5,3.8c-1,1-2.4,1.5-4,1.5H1158z"/>
		<path id="XMLID_371_" class="st0" d="M1318.7,406.5c-1.5,0-2.7-0.5-3.8-1.5c-1-1-1.5-2.3-1.5-3.8V257.3c0-1.6,0.5-2.9,1.5-4
			c1-1,2.3-1.5,3.8-1.5h97.3c1.6,0,2.9,0.5,4,1.5c1,1,1.5,2.4,1.5,4v14.6c0,1.5-0.5,2.7-1.5,3.8c-1,1-2.4,1.5-4,1.5h-72.7v39.1h67.9
			c1.6,0,2.9,0.5,4,1.4c1,1,1.5,2.2,1.5,3.9v13.7c0,1.6-0.5,2.9-1.5,3.9c-1,1-2.4,1.4-4,1.4h-67.9v40.5h74.5c1.6,0,2.9,0.5,4,1.5
			c1,1,1.5,2.4,1.5,4v14.6c0,1.5-0.5,2.7-1.5,3.8c-1,1-2.4,1.5-4,1.5H1318.7z"/>
		<path id="XMLID_373_" class="st0" d="M1460.6,406.5c-1.5,0-2.7-0.5-3.8-1.5c-1-1-1.5-2.3-1.5-3.8V257.3c0-1.6,0.5-2.9,1.5-4
			c1-1,2.3-1.5,3.8-1.5h57.3c17.8,0,31.9,4.1,42.2,12.4c10.3,8.3,15.5,20.3,15.5,36c0,10.9-2.7,20-8.1,27.2
			c-5.4,7.2-12.6,12.5-21.6,15.7l32.3,56.4c0.4,0.9,0.7,1.7,0.7,2.4c0,1.3-0.5,2.4-1.4,3.3c-1,0.9-2,1.3-3.2,1.3h-20.1
			c-2.5,0-4.4-0.7-5.7-2c-1.3-1.3-2.4-2.7-3.1-4l-28.5-52.4h-30.7v53.1c0,1.5-0.5,2.7-1.4,3.8c-1,1-2.2,1.5-3.9,1.5H1460.6z
			 M1486.1,323.2h31.2c9,0,15.7-2,20.1-6.1c4.4-4.1,6.6-9.8,6.6-17.1c0-7.4-2.2-13.2-6.5-17.4c-4.3-4.2-11.1-6.3-20.2-6.3h-31.2
			V323.2z"/>
		<path id="XMLID_376_" class="st0" d="M1662.3,408.7c-13.7,0-25.2-2-34.4-6.1c-9.2-4.1-16.2-9.4-21-15.9
			c-4.8-6.6-7.3-13.4-7.6-20.7c0-1.3,0.4-2.4,1.3-3.3c0.9-0.9,2-1.3,3.3-1.3h19.7c1.9,0,3.4,0.4,4.3,1.2c1,0.8,1.8,1.8,2.5,3
			c0.9,2.8,2.6,5.6,5.1,8.3c2.5,2.7,5.9,5,10.3,6.7c4.3,1.8,9.8,2.7,16.5,2.7c10.6,0,18.5-1.8,23.8-5.3c5.2-3.5,7.8-8.3,7.8-14.4
			c0-4.3-1.4-7.7-4.2-10.3c-2.8-2.6-7.1-4.9-12.9-7.1c-5.8-2.1-13.5-4.4-23.1-6.7c-11.1-2.7-20.3-5.9-27.7-9.6
			c-7.4-3.8-13-8.5-16.8-14.3c-3.8-5.7-5.6-13-5.6-21.9c0-8.5,2.3-16.1,7-22.8c4.6-6.6,11.3-11.9,19.9-15.7
			c8.6-3.8,18.9-5.7,30.8-5.7c9.6,0,18.1,1.3,25.4,3.9c7.4,2.6,13.5,6,18.3,10.2c4.9,4.2,8.6,8.7,11.2,13.5c2.6,4.8,3.9,9.5,4.1,14
			c0,1.2-0.4,2.2-1.2,3.2c-0.8,1-2,1.4-3.4,1.4H1695c-1.2,0-2.4-0.3-3.5-0.9c-1.2-0.6-2.1-1.7-2.9-3.3c-0.9-4.6-3.8-8.5-8.6-11.7
			c-4.9-3.2-11.1-4.9-18.8-4.9c-8,0-14.4,1.5-19.2,4.4c-4.9,3-7.3,7.5-7.3,13.7c0,4.1,1.2,7.6,3.6,10.3c2.4,2.7,6.3,5.1,11.7,7.2
			c5.4,2.1,12.5,4.3,21.3,6.6c12.5,2.8,22.8,6,30.7,9.7c8,3.7,13.8,8.4,17.5,14c3.7,5.7,5.5,12.9,5.5,21.6c0,9.7-2.6,18-7.8,24.9
			c-5.2,6.9-12.6,12.1-22,15.8C1685.8,406.9,1674.8,408.7,1662.3,408.7z"/>
	</g>
</g>
</svg>
