<?xml version="1.0" encoding="utf-8"?>
<!-- Generator: Adobe Illustrator 19.0.0, SVG Export Plug-In . SVG Version: 6.00 Build 0)  -->
<svg version="1.1" id="Layer_1" xmlns="http://www.w3.org/2000/svg" xmlns:xlink="http://www.w3.org/1999/xlink" x="0px" y="0px"
	 viewBox="-291.4 385 24 24" style="enable-background:new -291.4 385 24 24;" xml:space="preserve">
<style type="text/css">
	.st0{fill:#272C74;}
	.st1{fill:#E4F0FC;}
</style>
<g>
	<path class="st0" d="M-279.4,409L-279.4,409c-6.6,0-12-5.4-12-12l0,0c0-6.6,5.4-12,12-12l0,0c6.6,0,12,5.4,12,12l0,0
		C-267.4,403.6-272.7,409-279.4,409z"/>
	<g>
		<path class="st1" d="M-286,394.9v5.4c0,1,0.8,1.9,1.9,1.9h9.5c1,0,1.9-0.8,1.9-1.9v-5.4l-5.6,3.5c-0.6,0.4-1.4,0.4-2,0L-286,394.9
			z"/>
		<path class="st1" d="M-272.7,393.8L-272.7,393.8c0-1.1-0.8-2-1.9-2h-9.5c-1,0-1.9,0.8-1.9,1.9v0.1l6.1,3.8c0.3,0.2,0.7,0.2,1,0
			L-272.7,393.8z"/>
	</g>
</g>
</svg>
