<?xml version="1.0" encoding="utf-8"?>
<!-- Generator: Adobe Illustrator 19.0.0, SVG Export Plug-In . SVG Version: 6.00 Build 0)  -->
<svg version="1.1" id="Layer_1" xmlns="http://www.w3.org/2000/svg" xmlns:xlink="http://www.w3.org/1999/xlink" x="0px" y="0px"
	 viewBox="-292.4 388.4 24.3 17.2" style="enable-background:new -292.4 388.4 24.3 17.2;" xml:space="preserve">
<style type="text/css">
	.st0{fill:#272C74;}
</style>
<path class="st0" d="M-281.6,390.4c0-0.3,0.3-0.6,0.6-0.6h3.6c0.3,0,0.6,0.3,0.6,0.6v3.6c0,0.3-0.3,0.6-0.6,0.6
	c-0.3,0-0.6-0.3-0.6-0.6v-2.2l-3.8,3.8c-0.2,0.2-0.6,0.3-0.9,0c-0.2-0.2-0.3-0.6,0-0.9c0,0,0,0,0,0l3.8-3.8h-2.2
	C-281.3,391-281.6,390.7-281.6,390.4z"/>
<path class="st0" d="M-292.4,391c0-1.3,1.1-2.4,2.4-2.4h1.1c0.7,0,1.3,0.5,1.5,1.1l0.9,3.6c0.1,0.6-0.1,1.2-0.6,1.6l-1,0.8
	c-0.1,0.1-0.1,0.2-0.1,0.3c0.9,2.5,2.9,4.5,5.4,5.4c0.1,0,0.2,0,0.3-0.1l0.8-1c0.4-0.5,1-0.7,1.6-0.6l3.6,0.9
	c0.7,0.2,1.1,0.8,1.1,1.5v1.1c0,1.3-1.1,2.4-2.4,2.4h-1.8c-7,0-12.7-5.7-12.7-12.7V391z"/>
</svg>
