<?xml version="1.0" encoding="utf-8"?>
<!-- Generator: Adobe Illustrator 19.0.0, SVG Export Plug-In . SVG Version: 6.00 Build 0)  -->
<svg version="1.1" id="Layer_1" xmlns="http://www.w3.org/2000/svg" xmlns:xlink="http://www.w3.org/1999/xlink" x="0px" y="0px"
	 viewBox="-291.6 385 22.6 24" style="enable-background:new -291.6 385 22.6 24;" xml:space="preserve">
<style type="text/css">
	.st0{fill:#272C74;}
</style>
<path class="st0" d="M-278,388.8c0-0.4,0.3-0.8,0.8-0.8h4.5c0.4,0,0.8,0.3,0.8,0.8v4.5c0,0.4-0.3,0.8-0.8,0.8
	c-0.4,0-0.8-0.3-0.8-0.8v-2.7l-4.7,4.7c-0.3,0.3-0.8,0.3-1.1,0c-0.3-0.3-0.3-0.8,0-1.1c0,0,0,0,0,0l4.7-4.7h-2.7
	C-277.7,389.5-278,389.2-278,388.8z"/>
<path class="st0" d="M-291.5,389.5c0-1.7,1.3-3,3-3h1.4c0.9,0,1.6,0.6,1.8,1.4l1.1,4.4c0.2,0.7-0.1,1.5-0.7,2l-1.3,1
	c-0.1,0.1-0.2,0.2-0.1,0.4c1.1,3.1,3.6,5.6,6.7,6.7c0.1,0,0.3,0,0.4-0.1l1-1.3c0.5-0.6,1.2-0.9,2-0.7l4.4,1.1c0.8,0.2,1.4,1,1.4,1.8
	v1.4c0,1.7-1.3,3-3,3h-2.3c-8.7,0-15.8-7.1-15.8-15.8V389.5z"/>
</svg>
