<?xml version="1.0" encoding="utf-8"?>
<!-- Generator: Adobe Illustrator 19.0.0, SVG Export Plug-In . SVG Version: 6.00 Build 0)  -->
<svg version="1.1" id="Layer_1" xmlns="http://www.w3.org/2000/svg" xmlns:xlink="http://www.w3.org/1999/xlink" x="0px" y="0px"
	 viewBox="0 0 109.3 124.9" style="enable-background:new 0 0 109.3 124.9;" xml:space="preserve">
<style type="text/css">
	.st0{fill:#FFFFFF;}
	.st1{fill:none;}
	.st2{fill:#5EBD74;}
</style>
<g id="XMLID_98_">
	<path id="XMLID_12_" class="st0" d="M60.8,123.6L60.8,123.6c-0.2,0-0.8,0.1-0.9,0.1c0,0-0.1,0-0.1,0c-0.3,0-0.7,0-0.8,0H1.9v-19.9
		H22V59.5h38.2V40.5H22V20.8h38.2V1.4l0.3,0c12.9,1.3,24.8,8.2,33.6,19.5c8.8,11.4,13.7,26.1,13.7,41.6
		C107.8,94.5,87.1,120.8,60.8,123.6z"/>
	<polyline id="XMLID_5_" class="st1" points="22,0 22,1.5 22,20.8 	"/>
	<rect id="XMLID_100_" x="1.9" y="1.5" class="st2" width="20.1" height="19.3"/>
</g>
</svg>
