<?xml version="1.0" encoding="utf-8"?>
<!-- Generator: Adobe Illustrator 19.0.0, SVG Export Plug-In . SVG Version: 6.00 Build 0)  -->
<svg version="1.1" id="Layer_1" xmlns="http://www.w3.org/2000/svg" xmlns:xlink="http://www.w3.org/1999/xlink" x="0px" y="0px"
	 viewBox="0 0 1818 497" style="enable-background:new 0 0 1818 497;" xml:space="preserve">
<style type="text/css">
	.st0{fill:#FFFFFF;}
	.st1{fill:none;}
	.st2{fill:#5EBD74;}
</style>
<g id="XMLID_7_">
	<path id="XMLID_18_" class="st0" d="M406.4,241.9c0-54.5-17.2-106.5-48.3-146.5c-31-39.7-73-64.1-118.3-68.6l-1-0.1v0v68.4h-2.1
		v69.2h2.1v67.1h-0.9h-1.2H104.4v155.8H33.5v70h70.8h2.1h127.8h0.2c0.5,0,1.8,0,2.9,0c0.2,0,0.3,0,0.5,0l0,0c0,0,2.2-0.1,3.1-0.2
		l0,0C333.6,447,406.4,354.3,406.4,241.9z"/>
	<line id="XMLID_13_" class="st1" x1="104.4" y1="164.3" x2="104.4" y2="21.8"/>
	<rect id="XMLID_10_" x="33.5" y="27" class="st2" width="70.8" height="68.1"/>
	<polygon id="XMLID_8_" class="st0" points="206,95.2 106.5,95.2 104.4,95.2 104.4,97.3 104.4,164.3 238.1,164.3 238.1,95.2 	"/>
</g>
<g id="XMLID_116_">
	<g id="XMLID_36_">
		<path id="XMLID_39_" class="st0" d="M456.7,245.1c-2,0-3.8-0.7-5.2-2.1c-1.4-1.4-2.1-3.2-2.1-5.2V38.1c0-2.2,0.7-4.1,2.1-5.5
			c1.4-1.4,3.2-2.1,5.2-2.1h133.1c2.2,0,4.1,0.7,5.5,2.1c1.4,1.4,2.1,3.3,2.1,5.5v21.5c0,2.3-0.7,4-2.1,5.4c-1.4,1.3-3.3,2-5.5,2
			h-98.5v58.3h92.3c2.2,0,4.1,0.7,5.5,2.1c1.4,1.4,2.1,3.3,2.1,5.5v21.5c0,2-0.7,3.8-2.1,5.2c-1.4,1.4-3.3,2.1-5.5,2.1h-92.3v76.1
			c0,2-0.7,3.8-2.1,5.2c-1.4,1.4-3.3,2.1-5.5,2.1H456.7z"/>
		<path id="XMLID_61_" class="st0" d="M641.1,245.1c-2,0-3.8-0.7-5.2-2.1c-1.4-1.4-2.1-3.2-2.1-5.2V38.1c0-2.2,0.7-4.1,2.1-5.5
			c1.4-1.4,3.2-2.1,5.2-2.1h79.5c24.7,0,44.3,5.7,58.6,17.2c14.3,11.5,21.5,28.1,21.5,50c0,15.1-3.7,27.7-11.2,37.7
			c-7.5,10-17.4,17.3-29.9,21.8l44.8,78.2c0.6,1.2,0.9,2.4,0.9,3.4c0,1.8-0.7,3.4-2,4.6c-1.3,1.2-2.8,1.8-4.4,1.8h-27.9
			c-3.5,0-6.1-0.9-8-2.8c-1.8-1.8-3.3-3.7-4.3-5.5L719,164.1h-42.6v73.6c0,2-0.7,3.8-2,5.2c-1.3,1.4-3.1,2.1-5.4,2.1H641.1z
			 M676.3,129.5h43.3c12.5,0,21.8-2.8,27.9-8.4c6.1-5.6,9.2-13.5,9.2-23.8c0-10.2-3-18.3-9-24.1c-6-5.8-15.4-8.7-28.1-8.7h-43.3
			V129.5z"/>
		<path id="XMLID_78_" class="st0" d="M847.5,245.1c-2,0-3.8-0.7-5.2-2.1c-1.4-1.4-2.1-3.2-2.1-5.2V38.1c0-2.2,0.7-4.1,2.1-5.5
			c1.4-1.4,3.2-2.1,5.2-2.1h135c2.2,0,4.1,0.7,5.5,2.1c1.4,1.4,2.1,3.3,2.1,5.5v20.2c0,2-0.7,3.8-2.1,5.2c-1.4,1.4-3.3,2.1-5.5,2.1
			H881.6V120h94.2c2.2,0,4.1,0.7,5.5,2c1.4,1.3,2.1,3.1,2.1,5.4v19c0,2.3-0.7,4-2.1,5.4c-1.4,1.3-3.3,2-5.5,2h-94.2v56.1H985
			c2.2,0,4.1,0.7,5.5,2.1c1.4,1.4,2.1,3.3,2.1,5.5v20.2c0,2-0.7,3.8-2.1,5.2c-1.4,1.4-3.3,2.1-5.5,2.1H847.5z"/>
		<path id="XMLID_82_" class="st0" d="M1038.3,245.1c-2,0-3.8-0.7-5.2-2.1c-1.4-1.4-2.1-3.2-2.1-5.2V38.1c0-2.2,0.7-4.1,2.1-5.5
			c1.4-1.4,3.2-2.1,5.2-2.1h135c2.2,0,4.1,0.7,5.5,2.1c1.4,1.4,2.1,3.3,2.1,5.5v20.2c0,2-0.7,3.8-2.1,5.2c-1.4,1.4-3.3,2.1-5.5,2.1
			h-100.9V120h94.2c2.2,0,4.1,0.7,5.5,2c1.4,1.3,2.1,3.1,2.1,5.4v19c0,2.3-0.7,4-2.1,5.4c-1.4,1.3-3.3,2-5.5,2h-94.2v56.1h103.4
			c2.2,0,4.1,0.7,5.5,2.1c1.4,1.4,2.1,3.3,2.1,5.5v20.2c0,2-0.7,3.8-2.1,5.2c-1.4,1.4-3.3,2.1-5.5,2.1H1038.3z"/>
	</g>
	<g id="XMLID_34_">
		<path id="XMLID_87_" class="st0" d="M1229.2,245.1c-2,0-3.8-0.7-5.2-2.1c-1.4-1.4-2.1-3.2-2.1-5.2V38.1c0-2.2,0.7-4.1,2.1-5.5
			c1.4-1.4,3.2-2.1,5.2-2.1h133.1c2.2,0,4.1,0.7,5.5,2.1c1.4,1.4,2.1,3.3,2.1,5.5v21.5c0,2.3-0.7,4-2.1,5.4c-1.4,1.3-3.3,2-5.5,2
			h-98.5v58.3h92.3c2.2,0,4.1,0.7,5.5,2.1c1.4,1.4,2.1,3.3,2.1,5.5v21.5c0,2-0.7,3.8-2.1,5.2c-1.4,1.4-3.3,2.1-5.5,2.1h-92.3v76.1
			c0,2-0.7,3.8-2.1,5.2c-1.4,1.4-3.3,2.1-5.5,2.1H1229.2z"/>
		<path id="XMLID_89_" class="st0" d="M1487.2,248.2c-18.2,0-33.9-3-46.9-9c-13.1-6-23.3-15.3-30.7-27.9
			c-7.4-12.6-11.4-28.3-12-47.1c-0.2-8.8-0.3-17.5-0.3-26.1s0.1-17.4,0.3-26.4c0.6-18.6,4.7-34.2,12.3-46.6
			c7.6-12.5,17.9-21.9,31.1-28.2c13.2-6.3,28.6-9.5,46.2-9.5c17.6,0,33,3.2,46.3,9.5c13.3,6.3,23.7,15.8,31.3,28.2
			c7.6,12.5,11.7,28,12.3,46.6c0.4,9,0.6,17.8,0.6,26.4s-0.2,17.3-0.6,26.1c-0.6,18.8-4.6,34.5-12,47.1
			c-7.4,12.6-17.6,21.9-30.8,27.9C1521.1,245.2,1505.4,248.2,1487.2,248.2z M1487.2,212.9c13.3,0,24.1-3.9,32.5-11.8
			c8.4-7.9,12.9-20.7,13.5-38.5c0.4-9,0.6-17.3,0.6-25c0-7.7-0.2-15.9-0.6-24.7c-0.4-11.9-2.6-21.5-6.6-29
			c-4-7.5-9.4-12.9-16.1-16.3c-6.7-3.4-14.5-5.1-23.3-5.1c-8.6,0-16.3,1.7-23,5.1c-6.7,3.4-12.1,8.8-16.1,16.3
			c-4,7.5-6.2,17.1-6.6,29c-0.2,8.8-0.3,17-0.3,24.7c0,7.7,0.1,16,0.3,25c0.6,17.8,5.1,30.6,13.5,38.5
			C1463.3,209,1474.1,212.9,1487.2,212.9z"/>
		<path id="XMLID_92_" class="st0" d="M1625.2,245.1c-2,0-3.8-0.7-5.2-2.1c-1.4-1.4-2.1-3.2-2.1-5.2V38.1c0-2.2,0.7-4.1,2.1-5.5
			c1.4-1.4,3.2-2.1,5.2-2.1h79.5c24.7,0,44.3,5.7,58.6,17.2c14.3,11.5,21.5,28.1,21.5,50c0,15.1-3.7,27.7-11.2,37.7
			c-7.5,10-17.4,17.3-29.9,21.8l44.8,78.2c0.6,1.2,0.9,2.4,0.9,3.4c0,1.8-0.7,3.4-2,4.6c-1.3,1.2-2.8,1.8-4.4,1.8H1755
			c-3.5,0-6.1-0.9-8-2.8c-1.8-1.8-3.3-3.7-4.3-5.5l-39.6-72.7h-42.6v73.6c0,2-0.7,3.8-2,5.2c-1.3,1.4-3.1,2.1-5.4,2.1H1625.2z
			 M1660.5,129.5h43.3c12.5,0,21.8-2.8,27.9-8.4c6.1-5.6,9.2-13.5,9.2-23.8c0-10.2-3-18.3-9.1-24.1c-6-5.8-15.4-8.7-28.1-8.7h-43.3
			V129.5z"/>
	</g>
</g>
<g id="XMLID_115_">
	<g id="XMLID_200_">
		<path id="XMLID_218_" class="st2" d="M455.8,454.9c-1.8,0-3.2-0.6-4.3-1.7c-1.1-1.1-1.7-2.6-1.7-4.3v-156c0-1.8,0.6-3.2,1.7-4.3
			c1.1-1.1,2.6-1.7,4.3-1.7H516c16,0,29.4,2.5,40.1,7.6c10.7,5,18.9,12.4,24.6,22.1c5.7,9.7,8.7,21.6,9,35.9
			c0.2,7,0.2,13.2,0.2,18.5s-0.1,11.4-0.2,18.2c-0.5,14.9-3.4,27.2-8.9,37c-5.4,9.8-13.4,17-24,21.7c-10.6,4.7-23.8,7.1-39.6,7.1
			H455.8z M487.9,423.9H516c8,0,14.6-1.2,19.7-3.6c5.1-2.4,8.9-6.2,11.4-11.4c2.5-5.2,3.8-12,4-20.3c0.2-4.6,0.3-8.8,0.4-12.5
			c0.1-3.7,0.1-7.4,0-11c-0.1-3.7-0.2-7.8-0.4-12.2c-0.3-12-3.4-20.8-9.2-26.5c-5.8-5.7-14.8-8.5-27-8.5h-26.9V423.9z"/>
		<path id="XMLID_216_" class="st2" d="M625.9,454.9c-1.8,0-3.2-0.6-4.3-1.7c-1.1-1.1-1.7-2.6-1.7-4.3v-156c0-1.8,0.6-3.2,1.7-4.3
			c1.1-1.1,2.6-1.7,4.3-1.7h108.7c1.8,0,3.2,0.6,4.3,1.7c1.1,1.1,1.7,2.6,1.7,4.3v19.2c0,1.6-0.6,3-1.7,4.1
			c-1.1,1.1-2.6,1.7-4.3,1.7h-77.8v37.7h72.5c1.8,0,3.2,0.6,4.3,1.7c1.1,1.1,1.7,2.6,1.7,4.3v17.8c0,1.6-0.6,3-1.7,4.1
			c-1.1,1.1-2.6,1.7-4.3,1.7h-72.5v38.9h79.7c1.8,0,3.2,0.6,4.3,1.7c1.1,1.1,1.7,2.6,1.7,4.3v19c0,1.8-0.6,3.2-1.7,4.3
			c-1.1,1.1-2.6,1.7-4.3,1.7H625.9z"/>
		<path id="XMLID_214_" class="st2" d="M831.6,457.3c-15.4,0-28.2-2.2-38.5-6.7c-10.3-4.5-18.1-10.3-23.4-17.5
			c-5.3-7.2-8.1-14.9-8.4-23c0-1.3,0.5-2.4,1.4-3.5c1-1,2.2-1.6,3.6-1.6H792c2.1,0,3.7,0.4,4.8,1.3c1.1,0.9,2.2,2,3.1,3.2
			c1.1,2.7,2.9,5.4,5.4,7.9c2.5,2.6,5.9,4.7,10.2,6.4c4.3,1.7,9.7,2.5,16.1,2.5c10.4,0,18.2-1.7,23.4-5c5.2-3.4,7.8-7.9,7.8-13.7
			c0-4.2-1.4-7.5-4.2-10.1c-2.8-2.6-7.2-4.9-13.2-7c-6-2.1-14-4.3-23.9-6.7c-12-2.6-22.2-5.9-30.6-10s-14.7-9.4-19-15.8
			c-4.2-6.5-6.4-14.5-6.4-24.1s2.6-18.1,7.9-25.6c5.3-7.4,12.7-13.3,22.3-17.5c9.6-4.2,21-6.4,34.3-6.4c10.7,0,20.2,1.4,28.4,4.3
			c8.2,2.9,15.1,6.6,20.6,11.3c5.5,4.6,9.7,9.6,12.6,14.9s4.4,10.4,4.6,15.4c0,1.3-0.5,2.4-1.4,3.5c-1,1-2.2,1.6-3.6,1.6h-26.9
			c-1.6,0-3-0.3-4.3-1c-1.3-0.6-2.3-1.8-3.1-3.4c-1-4.2-3.8-7.8-8.5-10.9c-4.7-3.1-10.8-4.7-18.4-4.7c-7.8,0-14,1.4-18.6,4.3
			c-4.6,2.9-6.8,7.3-6.8,13.2c0,3.8,1.2,7.1,3.5,9.7c2.3,2.6,6.2,5,11.8,7c5.5,2,12.8,4.2,22,6.6c14.1,2.9,25.5,6.3,34.3,10.3
			c8.8,4,15.3,9.2,19.4,15.5c4.2,6.3,6.2,14.3,6.2,23.9c0,10.7-3,19.9-9,27.6c-6,7.7-14.2,13.6-24.7,17.6
			C857.7,455.2,845.5,457.3,831.6,457.3z"/>
		<path id="XMLID_212_" class="st2" d="M933.6,454.9c-1.8,0-3.2-0.6-4.3-1.7c-1.1-1.1-1.7-2.6-1.7-4.3v-156c0-1.8,0.6-3.2,1.7-4.3
			c1.1-1.1,2.6-1.7,4.3-1.7h27.1c1.8,0,3.2,0.6,4.3,1.7c1.1,1.1,1.7,2.6,1.7,4.3v156c0,1.8-0.6,3.2-1.7,4.3
			c-1.1,1.1-2.6,1.7-4.3,1.7H933.6z"/>
		<path id="XMLID_210_" class="st2" d="M1069.7,457.3c-15,0-27.9-2.5-38.5-7.6c-10.6-5-18.9-12.4-24.7-22.1
			c-5.8-9.7-9-21.4-9.5-35.2c-0.2-6.9-0.2-14.2-0.2-22.1c0-7.8,0.1-15.3,0.2-22.3c0.5-13.4,3.6-24.9,9.5-34.3
			c5.8-9.4,14.2-16.7,25-21.7c10.8-5,23.6-7.6,38.3-7.6c11.8,0,22.2,1.5,31.2,4.6c9,3,16.5,7,22.6,11.9c6.1,4.9,10.7,10.2,13.9,16
			c3.2,5.8,4.9,11.3,5,16.6c0,1.4-0.5,2.7-1.4,3.7c-1,1-2.2,1.6-3.8,1.6h-29.8c-1.6,0-2.8-0.3-3.7-1c-0.9-0.6-1.6-1.6-2.3-2.9
			c-1.1-2.9-2.9-5.8-5.4-8.8c-2.5-3-5.8-5.5-10-7.6c-4.2-2.1-9.6-3.1-16.3-3.1c-10.1,0-18,2.6-23.9,7.9c-5.8,5.3-9,13.9-9.5,25.9
			c-0.5,13.8-0.5,27.8,0,42c0.5,12.5,3.7,21.4,9.7,26.9c6,5.4,14,8.2,24.1,8.2c6.6,0,12.4-1.2,17.6-3.5c5.2-2.3,9.3-6,12.4-10.9
			c3-5,4.6-11.3,4.6-19v-6h-26.2c-1.6,0-3-0.6-4.1-1.8c-1.1-1.2-1.7-2.6-1.7-4.2v-15.4c0-1.8,0.6-3.2,1.7-4.3
			c1.1-1.1,2.5-1.7,4.1-1.7h58.8c1.8,0,3.2,0.6,4.3,1.7c1.1,1.1,1.7,2.6,1.7,4.3v26.2c0,13.8-3,25.5-9,35.3
			c-6,9.8-14.6,17.2-25.7,22.4C1097.6,454.7,1084.6,457.3,1069.7,457.3z"/>
		<path id="XMLID_208_" class="st2" d="M1178.6,454.9c-1.8,0-3.2-0.6-4.3-1.7c-1.1-1.1-1.7-2.6-1.7-4.3v-156c0-1.8,0.6-3.2,1.7-4.3
			c1.1-1.1,2.6-1.7,4.3-1.7h21.8c2.4,0,4.2,0.6,5.3,1.7c1.1,1.1,1.8,2,2.2,2.6l64.1,100.1v-98.4c0-1.8,0.6-3.2,1.7-4.3
			c1.1-1.1,2.5-1.7,4.1-1.7h24.5c1.8,0,3.2,0.6,4.3,1.7c1.1,1.1,1.7,2.6,1.7,4.3v156c0,1.6-0.6,3-1.7,4.2c-1.1,1.2-2.6,1.8-4.3,1.8
			h-22.1c-2.4,0-4.1-0.6-5.2-1.8c-1-1.2-1.8-2-2.3-2.5l-63.8-97v95.3c0,1.8-0.6,3.2-1.7,4.3c-1.1,1.1-2.6,1.7-4.3,1.7H1178.6z"/>
		<path id="XMLID_206_" class="st2" d="M1349.8,454.9c-1.8,0-3.2-0.6-4.3-1.7c-1.1-1.1-1.7-2.6-1.7-4.3v-156c0-1.8,0.6-3.2,1.7-4.3
			c1.1-1.1,2.6-1.7,4.3-1.7h108.7c1.8,0,3.2,0.6,4.3,1.7c1.1,1.1,1.7,2.6,1.7,4.3v19.2c0,1.6-0.6,3-1.7,4.1
			c-1.1,1.1-2.6,1.7-4.3,1.7h-77.8v37.7h72.5c1.8,0,3.2,0.6,4.3,1.7c1.1,1.1,1.7,2.6,1.7,4.3v17.8c0,1.6-0.6,3-1.7,4.1
			c-1.1,1.1-2.6,1.7-4.3,1.7h-72.5v38.9h79.7c1.8,0,3.2,0.6,4.3,1.7c1.1,1.1,1.7,2.6,1.7,4.3v19c0,1.8-0.6,3.2-1.7,4.3
			c-1.1,1.1-2.6,1.7-4.3,1.7H1349.8z"/>
		<path id="XMLID_203_" class="st2" d="M1501,454.9c-1.8,0-3.2-0.6-4.3-1.7c-1.1-1.1-1.7-2.6-1.7-4.3v-156c0-1.8,0.6-3.2,1.7-4.3
			c1.1-1.1,2.6-1.7,4.3-1.7h63.6c20,0,35.8,4.6,47.3,13.8c11.5,9.2,17.3,22.4,17.3,39.7c0,11.7-2.8,21.4-8.4,29.3
			c-5.6,7.8-13.1,13.7-22.6,17.5l33.8,60c0.5,1,0.7,1.8,0.7,2.6c0,1.3-0.5,2.4-1.4,3.5c-1,1-2.2,1.6-3.6,1.6H1601
			c-2.9,0-5-0.8-6.5-2.3c-1.4-1.5-2.5-2.9-3.1-4.2l-29.3-55h-29v55.4c0,1.8-0.6,3.2-1.7,4.3c-1.1,1.1-2.6,1.7-4.3,1.7H1501z
			 M1533.1,362.9h30.7c8.8,0,15.3-2,19.6-6c4.2-4,6.4-9.6,6.4-16.8s-2.1-12.9-6.2-17c-4.2-4.2-10.7-6.2-19.7-6.2h-30.7V362.9z"/>
		<path id="XMLID_201_" class="st2" d="M1719.1,457.3c-15.4,0-28.2-2.2-38.5-6.7c-10.3-4.5-18.1-10.3-23.4-17.5
			c-5.3-7.2-8.1-14.9-8.4-23c0-1.3,0.5-2.4,1.4-3.5c1-1,2.2-1.6,3.6-1.6h25.7c2.1,0,3.7,0.4,4.8,1.3c1.1,0.9,2.2,2,3.1,3.2
			c1.1,2.7,2.9,5.4,5.4,7.9c2.5,2.6,5.9,4.7,10.2,6.4c4.3,1.7,9.7,2.5,16.1,2.5c10.4,0,18.2-1.7,23.4-5c5.2-3.4,7.8-7.9,7.8-13.7
			c0-4.2-1.4-7.5-4.2-10.1c-2.8-2.6-7.2-4.9-13.2-7c-6-2.1-14-4.3-23.9-6.7c-12-2.6-22.2-5.9-30.6-10s-14.7-9.4-19-15.8
			c-4.2-6.5-6.4-14.5-6.4-24.1s2.6-18.1,7.9-25.6c5.3-7.4,12.7-13.3,22.3-17.5c9.6-4.2,21-6.4,34.3-6.4c10.7,0,20.2,1.4,28.4,4.3
			c8.2,2.9,15.1,6.6,20.6,11.3c5.5,4.6,9.7,9.6,12.6,14.9s4.4,10.4,4.6,15.4c0,1.3-0.5,2.4-1.4,3.5c-1,1-2.2,1.6-3.6,1.6H1752
			c-1.6,0-3-0.3-4.3-1c-1.3-0.6-2.3-1.8-3.1-3.4c-1-4.2-3.8-7.8-8.5-10.9c-4.7-3.1-10.8-4.7-18.4-4.7c-7.8,0-14,1.4-18.6,4.3
			c-4.6,2.9-6.8,7.3-6.8,13.2c0,3.8,1.2,7.1,3.5,9.7c2.3,2.6,6.2,5,11.8,7c5.5,2,12.8,4.2,22,6.6c14.1,2.9,25.5,6.3,34.3,10.3
			c8.8,4,15.3,9.2,19.4,15.5c4.2,6.3,6.2,14.3,6.2,23.9c0,10.7-3,19.9-9,27.6c-6,7.7-14.2,13.6-24.7,17.6
			C1745.2,455.2,1733,457.3,1719.1,457.3z"/>
	</g>
</g>
</svg>
