<?xml version="1.0" encoding="utf-8"?>
<!-- Generator: Adobe Illustrator 19.0.0, SVG Export Plug-In . SVG Version: 6.00 Build 0)  -->
<svg version="1.1" id="Layer_1" xmlns="http://www.w3.org/2000/svg" xmlns:xlink="http://www.w3.org/1999/xlink" x="0px" y="0px"
	 viewBox="-289.8 385 19.6 24" style="enable-background:new -289.8 385 19.6 24;" xml:space="preserve">
<style type="text/css">
	.st0{fill:#272C74;}
</style>
<path class="st0" d="M-281,386.6c-4.9,0-8.8,3.9-8.8,8.8c0,4.1,2.2,7.3,4.2,9.4c0.9,0.9,1.8,1.7,2.9,2.4c0.4,0.3,0.8,0.5,1.2,0.8
	l0.1,0l0,0c0.2,0.1,0.5,0.1,0.8,0l0,0l0.1,0c0.4-0.2,0.8-0.5,1.2-0.8c1-0.7,2-1.5,2.9-2.4c2.1-2.1,4.2-5.3,4.2-9.4
	C-272.2,390.5-276.1,386.6-281,386.6z M-281,398.6c-1.8,0-3.2-1.4-3.2-3.2c0-1.8,1.4-3.2,3.2-3.2s3.2,1.4,3.2,3.2
	C-277.8,397.1-279.2,398.6-281,398.6z"/>
</svg>
