<?xml version="1.0" encoding="utf-8"?>
<!-- Generator: Adobe Illustrator 19.0.0, SVG Export Plug-In . SVG Version: 6.00 Build 0)  -->
<svg version="1.1" id="Layer_1" xmlns="http://www.w3.org/2000/svg" xmlns:xlink="http://www.w3.org/1999/xlink" x="0px" y="0px"
	 viewBox="-292.2 388.4 24.3 17.2" style="enable-background:new -292.2 388.4 24.3 17.2;" xml:space="preserve">
<style type="text/css">
	.st0{fill:#272C74;}
</style>
<path class="st0" d="M-285.3,388.7c-3.8,0-6.9,3.1-6.9,6.9c0,3.2,1.7,5.7,3.3,7.4c0.7,0.7,1.4,1.3,2.2,1.9c0.3,0.2,0.6,0.4,1,0.6
	l0.1,0l0,0c0.2,0.1,0.4,0.1,0.6,0l0,0l0.1,0c0.3-0.2,0.6-0.4,1-0.6c0.8-0.6,1.6-1.2,2.2-1.9c1.6-1.7,3.3-4.2,3.3-7.4
	C-278.4,391.7-281.5,388.7-285.3,388.7z M-285.3,398.1c-1.4,0-2.5-1.1-2.5-2.5s1.1-2.5,2.5-2.5s2.5,1.1,2.5,2.5
	S-283.9,398.1-285.3,398.1z"/>
</svg>
