<?xml version="1.0" encoding="utf-8"?>
<!-- Generator: Adobe Illustrator 19.0.0, SVG Export Plug-In . SVG Version: 6.00 Build 0)  -->
<svg version="1.1" id="Layer_1" xmlns="http://www.w3.org/2000/svg" xmlns:xlink="http://www.w3.org/1999/xlink" x="0px" y="0px"
	 viewBox="-292 385 24 24" style="enable-background:new -292 385 24 24;" xml:space="preserve">
<style type="text/css">
	.st0{fill:#272C74;}
	.st1{fill:#E4F0FC;}
</style>
<path class="st0" d="M-280,409L-280,409c-6.6,0-12-5.4-12-12l0,0c0-6.6,5.4-12,12-12l0,0c6.6,0,12,5.4,12,12l0,0
	C-268,403.6-273.4,409-280,409z"/>
<path class="st1" d="M-279.9,390.1c-3.2,0-5.9,2.6-5.9,5.9c0,2.7,1.4,4.9,2.8,6.3c0.6,0.6,1.2,1.1,1.9,1.6c0.3,0.2,0.5,0.4,0.8,0.5
	l0,0l0,0c0.2,0.1,0.4,0.1,0.5,0l0,0l0.1,0c0.3-0.2,0.5-0.3,0.8-0.5c0.7-0.5,1.3-1,1.9-1.6c1.4-1.4,2.8-3.5,2.8-6.3
	C-274,392.7-276.6,390.1-279.9,390.1z M-279.9,398.1c-1.2,0-2.1-1-2.1-2.1c0-1.2,1-2.1,2.1-2.1c1.2,0,2.1,1,2.1,2.1
	C-277.7,397.1-278.7,398.1-279.9,398.1z"/>
</svg>
