<?xml version="1.0" encoding="utf-8"?>
<!-- Generator: Adobe Illustrator 19.0.0, SVG Export Plug-In . SVG Version: 6.00 Build 0)  -->
<svg version="1.1" id="Layer_1" xmlns="http://www.w3.org/2000/svg" xmlns:xlink="http://www.w3.org/1999/xlink" x="0px" y="0px"
	 viewBox="-292.3 385 24 24" style="enable-background:new -292.3 385 24 24;" xml:space="preserve">
<style type="text/css">
	.st0{fill:#272C74;}
	.st1{fill:#E4F0FC;}
</style>
<path class="st0" d="M-280.3,409L-280.3,409c-6.6,0-12-5.4-12-12l0,0c0-6.6,5.4-12,12-12l0,0c6.6,0,12,5.4,12,12l0,0
	C-268.3,403.6-273.7,409-280.3,409z"/>
<g>
	<path class="st1" d="M-278.8,392.8c0-0.2,0.2-0.4,0.4-0.4h2.3c0.2,0,0.4,0.2,0.4,0.4v2.3c0,0.2-0.2,0.4-0.4,0.4
		c-0.2,0-0.4-0.2-0.4-0.4v-1.4l-2.4,2.4c-0.1,0.2-0.4,0.2-0.5,0c-0.2-0.1-0.2-0.4,0-0.5c0,0,0,0,0,0l2.4-2.4h-1.4
		C-278.6,393.2-278.8,393-278.8,392.8z"/>
	<path class="st1" d="M-285.7,393.2c0-0.8,0.7-1.5,1.5-1.5h0.7c0.4,0,0.8,0.3,0.9,0.7l0.6,2.3c0.1,0.4,0,0.8-0.4,1l-0.7,0.5
		c-0.1,0.1-0.1,0.1-0.1,0.2c0.6,1.6,1.8,2.8,3.4,3.4c0.1,0,0.1,0,0.2-0.1l0.5-0.7c0.2-0.3,0.6-0.4,1-0.4l2.3,0.6
		c0.4,0.1,0.7,0.5,0.7,0.9v0.7c0,0.8-0.7,1.5-1.5,1.5h-1.2c-4.5,0-8.1-3.6-8.1-8.1V393.2z"/>
</g>
</svg>
